<svg width="311" height="311" viewBox="0 0 311 311" fill="none" xmlns="http://www.w3.org/2000/svg">
<path d="M155.5 0C69.7573 0 0 69.7573 0 155.5C0 193.053 13.3834 227.538 35.6302 254.439C35.6873 254.517 35.6924 254.616 35.7546 254.688C51.8178 274.058 71.9913 288.909 94.4714 298.503C94.7306 298.612 94.9846 298.731 95.2438 298.84C97.0631 299.607 98.9032 300.317 100.748 301.012C101.474 301.286 102.2 301.566 102.936 301.831C104.527 302.401 106.129 302.94 107.741 303.458C108.772 303.79 109.804 304.117 110.846 304.428C112.271 304.853 113.702 305.262 115.143 305.651C116.407 305.993 117.682 306.309 118.958 306.615C120.248 306.926 121.544 307.237 122.845 307.512C124.296 307.823 125.763 308.097 127.235 308.367C128.417 308.585 129.594 308.813 130.786 309.004C132.419 309.269 134.062 309.476 135.71 309.689C136.773 309.823 137.83 309.979 138.898 310.093C140.764 310.29 142.645 310.43 144.532 310.559C145.408 310.622 146.279 310.715 147.16 310.762C149.912 310.917 152.696 311 155.5 311C158.304 311 161.088 310.917 163.85 310.772C164.732 310.725 165.602 310.632 166.478 310.57C168.365 310.435 170.247 310.3 172.113 310.103C173.18 309.989 174.238 309.834 175.3 309.699C176.949 309.486 178.592 309.279 180.225 309.015C181.411 308.823 182.593 308.595 183.775 308.377C185.242 308.108 186.709 307.833 188.165 307.522C189.466 307.242 190.757 306.936 192.053 306.625C193.328 306.314 194.603 305.998 195.868 305.661C197.309 305.278 198.739 304.863 200.165 304.438C201.207 304.127 202.238 303.8 203.27 303.469C204.882 302.95 206.483 302.411 208.075 301.841C208.805 301.577 209.531 301.297 210.262 301.022C212.112 300.328 213.947 299.612 215.767 298.85C216.026 298.741 216.28 298.622 216.539 298.513C239.014 288.919 259.193 274.069 275.256 254.699C275.318 254.626 275.323 254.522 275.38 254.45C297.617 227.538 311 193.053 311 155.5C311 69.7573 241.243 0 155.5 0ZM218.514 286.224C218.436 286.26 218.363 286.301 218.286 286.338C216.435 287.229 214.554 288.069 212.657 288.888C212.226 289.069 211.801 289.256 211.371 289.437C209.712 290.132 208.033 290.79 206.343 291.423C205.638 291.687 204.933 291.946 204.223 292.195C202.725 292.729 201.222 293.242 199.703 293.729C198.76 294.03 197.812 294.315 196.863 294.595C195.515 294.999 194.162 295.388 192.794 295.751C191.643 296.056 190.482 296.336 189.321 296.611C188.103 296.901 186.89 297.197 185.662 297.456C184.319 297.741 182.966 297.985 181.619 298.228C180.525 298.43 179.437 298.643 178.333 298.819C176.814 299.058 175.28 299.249 173.751 299.441C172.781 299.566 171.817 299.711 170.837 299.814C169.091 300.001 167.328 300.12 165.571 300.245C164.789 300.296 164.011 300.385 163.218 300.426C160.652 300.561 158.081 300.633 155.5 300.633C152.919 300.633 150.348 300.561 147.787 300.426C146.999 300.385 146.222 300.302 145.434 300.245C143.672 300.125 141.914 300.001 140.168 299.814C139.188 299.711 138.224 299.566 137.255 299.441C135.726 299.249 134.191 299.058 132.673 298.819C131.569 298.643 130.48 298.43 129.386 298.228C128.034 297.985 126.681 297.736 125.343 297.456C124.115 297.197 122.897 296.901 121.684 296.611C120.523 296.331 119.362 296.056 118.211 295.751C116.848 295.388 115.49 294.994 114.142 294.595C113.194 294.315 112.245 294.03 111.302 293.729C109.783 293.242 108.275 292.729 106.782 292.195C106.072 291.941 105.367 291.682 104.662 291.423C102.972 290.79 101.293 290.132 99.634 289.437C99.2038 289.261 98.784 289.075 98.3538 288.893C96.4567 288.079 94.5751 287.234 92.7195 286.343C92.6417 286.307 92.5692 286.27 92.4914 286.229C74.4067 277.479 58.4317 265.06 45.4682 249.977C55.4876 213.082 83.8508 183.34 120.341 171.506C121.062 171.947 121.814 172.341 122.555 172.755C122.99 172.999 123.42 173.258 123.861 173.491C125.406 174.31 126.971 175.077 128.573 175.767C129.801 176.306 131.071 176.762 132.336 177.229C132.584 177.317 132.833 177.415 133.082 177.503C140.111 179.991 147.632 181.417 155.5 181.417C163.368 181.417 170.889 179.991 177.913 177.503C178.162 177.415 178.41 177.317 178.659 177.229C179.924 176.762 181.194 176.306 182.422 175.767C184.024 175.077 185.589 174.31 187.134 173.491C187.574 173.253 188.005 172.999 188.44 172.755C189.181 172.341 189.938 171.947 190.664 171.501C227.154 183.34 255.512 213.082 265.537 249.971C252.573 265.05 236.598 277.469 218.514 286.224ZM98.4833 114.033C98.4833 82.5964 124.063 57.0167 155.5 57.0167C186.937 57.0167 212.517 82.5964 212.517 114.033C212.517 134.031 202.145 151.628 186.517 161.808C184.475 163.135 182.35 164.322 180.167 165.359C179.908 165.483 179.654 165.613 179.395 165.732C164.384 172.558 146.616 172.558 131.605 165.732C131.346 165.613 131.086 165.483 130.833 165.359C128.645 164.322 126.525 163.135 124.483 161.808C108.855 151.628 98.4833 134.031 98.4833 114.033ZM273.312 240.108C261.561 205.41 234.753 177.368 200.502 164.047C214.201 151.706 222.883 133.886 222.883 114.033C222.883 76.8792 192.654 46.65 155.5 46.65C118.346 46.65 88.1167 76.8792 88.1167 114.033C88.1167 133.886 96.7988 151.706 110.503 164.047C76.252 177.374 49.4438 205.41 37.6932 240.108C20.5208 216.269 10.3667 187.056 10.3667 155.5C10.3667 75.4745 75.4745 10.3667 155.5 10.3667C235.525 10.3667 300.633 75.4745 300.633 155.5C300.633 187.056 290.479 216.269 273.312 240.108Z" fill="#306FA5"/>
</svg>
